<svg width="166" height="27" viewBox="0 0 166 27" fill="none" xmlns="http://www.w3.org/2000/svg">
<path d="M2.908 3.56925L0.187996 3.12725V1.01925H18.31L18.752 6.73125H16.372L15.25 3.36525L7.906 3.05925V12.2052L12.632 12.1032L13.176 9.31525H15.352V17.5433H13.176L12.632 14.6192L7.906 14.5172V24.1052L16.134 23.6972L18.106 19.3452L20.656 20.0592L19.772 26.2812H0.221996V24.2412L2.908 23.9012V3.56925ZM32.9673 13.9392L26.0313 3.60325L23.6853 3.12725V1.01925H34.8033V3.12725L31.9133 3.60325L36.5713 11.3212L41.3653 3.56925L38.4413 3.12725V1.01925H47.1793V3.12725L44.4253 3.60325L37.8293 12.8512L45.2413 23.9012L47.6213 24.2412V26.2812H36.5373V24.2412L39.3933 23.9012L34.2933 15.5712L29.3973 23.9012L32.6613 24.2412V26.2812H23.3793V24.2412L26.2353 23.9012L32.9673 13.9392ZM58.8948 0.883249H64.0968L71.9508 23.9012L73.9228 24.2412V26.2812H63.8928V24.2412L66.4428 23.9012L65.1168 19.4812H56.3108L54.9848 23.9352L57.7388 24.2412V26.2812H49.0688L49.0348 24.2412L51.0748 23.9012L58.8948 0.883249ZM61.2408 6.62925L60.6288 3.97725L59.9828 6.66325L56.9568 17.1012H64.4368L61.2408 6.62925ZM80.9258 3.56925L77.2538 3.12725V1.01925H87.8618L91.9078 15.6392L92.8598 19.6172L93.6758 15.6392L97.6878 1.01925H108.194V3.12725L104.488 3.56925L107.208 23.8672L109.962 24.2412V26.2812H99.1158V24.2412L102.108 23.9012L100.612 9.00925L99.9658 2.78725L98.7078 8.02325L93.7778 25.2272H90.1738L85.1418 8.90725L83.4078 2.78725L82.8978 9.00925L81.6058 23.9012L85.0398 24.2412V26.2812H75.5878V24.2412L78.4438 23.9012L80.9258 3.56925ZM116.776 26.5873C116.074 26.5873 115.462 26.3493 114.94 25.8732C114.419 25.3746 114.158 24.7512 114.158 24.0032C114.158 23.1646 114.453 22.4846 115.042 21.9632C115.654 21.4192 116.391 21.1472 117.252 21.1472C118.068 21.1472 118.714 21.4079 119.19 21.9292C119.666 22.4279 119.904 23.0286 119.904 23.7312C119.904 24.6152 119.61 25.3179 119.02 25.8392C118.454 26.3379 117.706 26.5873 116.776 26.5873ZM140.875 26.6213C140.127 26.6213 139.583 26.4626 139.243 26.1452C138.903 25.8279 138.733 25.3519 138.733 24.7172V23.7992C138.121 24.5472 137.26 25.2159 136.149 25.8052C135.039 26.3719 133.928 26.6553 132.817 26.6553C130.641 26.6553 129.089 26.0999 128.159 24.9892C127.23 23.8559 126.765 21.9972 126.765 19.4132V9.82525L125.065 9.34925V7.41125L130.845 6.96925H130.879L131.559 7.44525V19.4132C131.559 21.0679 131.763 22.2239 132.171 22.8812C132.579 23.5386 133.339 23.8672 134.449 23.8672C135.787 23.8672 137.033 23.3459 138.189 22.3032V9.82525L135.911 9.31525V7.41125L142.065 6.96925H142.133L142.949 7.44525V24.1732H144.853L144.819 26.1112C144.729 26.1339 144.309 26.2246 143.561 26.3833C142.813 26.5419 141.918 26.6213 140.875 26.6213ZM152.996 9.82525L152.214 13.1572H149.766V7.37725H164.76L165.542 9.14525L156.498 21.6912L154.118 24.1392L161.734 23.7652L163.366 19.8552L165.678 20.1272L165.134 26.2812H149.358L148.508 24.4112L157.79 12.1372L160.238 9.58725L152.996 9.82525Z" fill="#A06056"/>
</svg>
